# xmcd
#
# Track frame offsets:
#       150
#       17277
#       40831
#       64454
#       82460
#       100322
#       120995
#
# Disc length: 2022 seconds
#
# Revision: 3
# Processed by: cddbd v1.4PL0 Copyright (c) Steve Scherf et al.
# Submitted via: WhereIsIt 3.26
#
DISCID=5607e407
DTITLE=Groundhogs - Blues Obituary -  Vinyl
DYEAR=1900
DGENRE=
TTITLE0=B.D.D.
TTITLE1=Daze of the Weak
TTITLE2=Times
TTITLE3=Mistreated
TTITLE4=Express Man
TTITLE5=Natchez Burning
TTITLE6=Light Was The Day
EXTD=
EXTT0=
EXTT1=
EXTT2=
EXTT3=
EXTT4=
EXTT5=
EXTT6=
PLAYORDER=
